<?xml version="1.0" encoding="UTF-8"?>
<svg width="160px" height="40px" viewBox="0 0 160 40" version="1.1" xmlns="http://www.w3.org/2000/svg" xmlns:xlink="http://www.w3.org/1999/xlink">
    <title>logo-metrostav</title>
    <g id="Page-1" stroke="none" stroke-width="1" fill="none" fill-rule="evenodd">
        <g id="logo-metrostav" fill-rule="nonzero">
            <rect id="Rectangle" fill="#D60000" x="0" y="0" width="160" height="40"></rect>
            <g id="Page-1" transform="translate(20.625000, 13.244769)" fill="#FFFFFF">
                <path d="M0,1.78671582 C4.25904,1.78527832 8.5182,1.77377832 12.77724,1.78623665 C15.41568,1.79390332 16.92192,3.13772624 17.04996,5.75577311 C17.1582,7.96604913 17.0856,10.1853096 17.0898,12.4006169 C17.08992,12.4766846 17.05488,12.5529919 17.0316,12.6484658 L12.70908,12.6484658 L12.70908,11.7452366 C12.70908,9.92883563 12.70908,8.11243457 12.70896,6.29591376 C12.70884,4.70855436 12.315,4.36966374 10.65804,4.59822624 L10.65804,12.6273825 L6.23556,12.6273825 L6.23556,11.9930856 C6.23544,10.0568929 6.23568,8.1207002 6.23544,6.1843877 C6.2352,4.69202311 5.92896,4.42392936 4.31748,4.57917936 L4.31748,12.6877575 L0,12.6877575 L0,1.78671582 Z" id="Fill-1"></path>
                <path d="M120,9.33359082 C119.88192,9.73034082 119.80404,10.1447002 119.63832,10.5203669 C119.0364,11.8856325 117.90312,12.5821013 116.4744,12.6242679 C113.93856,12.6990179 111.399,12.6452314 108.81792,12.6452314 L108.81792,1.80743978 L113.24496,1.80743978 L113.24496,10.01832 C113.6352,10.01832 113.95368,10.0560544 114.25992,10.0110127 C115.14384,9.88127832 115.51248,9.45529913 115.51644,8.56380957 C115.5252,6.56736163 115.51956,4.57079395 115.5198,2.57422624 L115.5198,1.78671582 L120,1.78671582 L120,9.33359082 Z" id="Fill-3"></path>
                <path d="M63,14.2450491 C62.69364,14.1681429 62.38752,14.0900388 62.0808,14.01457 C58.82496,13.2137627 56.54592,10.3392419 56.5668,7.05922626 C56.58792,3.73848145 58.80108,0.943023115 62.08272,0.198877279 C64.03776,-0.244351887 65.91072,0.0467418627 67.6464,1.13780436 C65.45676,0.915590821 63.61572,1.57444499 62.19768,3.25224707 C61.20336,4.42884082 60.73644,5.8092002 60.86844,7.35403351 C61.13004,10.4142314 63.8832,13.3387054 68.199,12.5837783 C67.15848,13.3703304 66.15948,13.8962158 65.0058,14.1136377 C64.85424,14.1422679 64.70844,14.2004866 64.56,14.2450491 L63,14.2450491 Z" id="Fill-5"></path>
                <path d="M48.24246,4.45786634 L48.24246,5.97981946 C48.86034,5.97981946 49.43754,6.00653301 50.01102,5.97131426 C50.45994,5.94376218 50.85594,5.74107468 50.87514,5.22956426 C50.89338,4.74356946 50.52582,4.50434551 50.10258,4.47032468 C49.49442,4.42144968 48.87942,4.45786634 48.24246,4.45786634 M53.59806,7.49590282 C54.75018,8.0209497 55.16682,8.94286632 55.23258,10.1031684 C55.27986,10.9363194 55.40022,11.765158 55.4925,12.6384393 L50.73474,12.6384393 C50.67366,11.9129809 50.60634,11.1840486 50.55198,10.454158 C50.43198,8.84367882 49.9719,8.44860595 48.2151,8.53952782 L48.2151,12.6458663 L43.50882,12.6458663 L43.50882,1.82879863 C43.68582,1.81298613 43.85718,1.78447571 44.02842,1.78435593 C46.66554,1.78160071 49.30266,1.78771009 51.93978,1.77989695 C52.80462,1.77740801 53.60694,1.95230384 54.28854,2.51005384 C55.85742,3.79386113 55.67922,6.23629345 53.94462,7.2892622 C53.84634,7.34891845 53.74722,7.40701738 53.59806,7.49590282" id="Fill-8"></path>
                <path d="M102.481992,8.26506113 C101.728392,8.26506113 101.032632,8.2322382 100.341672,8.27668095 C99.8797919,8.30638926 99.5640719,8.59341007 99.5436719,9.09066532 C99.5260319,9.5208372 99.7409519,9.88093095 100.162872,9.9141132 C100.925112,9.97388926 101.695512,9.93088407 102.481992,9.93088407 L102.481992,8.26506113 Z M102.442752,5.96062884 C102.574272,4.92562884 102.324072,4.63130071 101.367192,4.62710801 C99.7683119,4.62039968 98.1694319,4.62519134 96.5703119,4.62519134 L95.8667519,4.62519134 L95.8667519,1.83069134 C96.0087119,1.81392051 96.1416719,1.78457155 96.2745119,1.78469097 C98.6729519,1.78648821 101.071392,1.78469097 103.469472,1.80361843 C103.885152,1.8068528 104.309472,1.86255593 104.713512,1.96078509 C106.129152,2.30470696 106.878192,3.13306634 106.919352,4.6257903 C106.990872,7.21712363 106.965192,9.81109238 106.977075,12.4041028 C106.977432,12.4795716 106.941072,12.5551601 106.910232,12.6766288 L106.316472,12.6766288 C103.518432,12.6766288 100.720272,12.6778268 97.9222319,12.6761497 C96.1267919,12.6750716 95.0269919,11.7332694 94.8393119,9.94262363 C94.7760719,9.34043095 94.8246719,8.69786845 94.9667519,8.10849345 C95.3097119,6.68524863 96.2658719,5.97716009 97.7427119,5.96374343 C99.0816719,5.95152468 100.420872,5.96074863 101.759952,5.96062884 L102.442752,5.96062884 Z" id="Fill-10"></path>
                <path d="M23.070936,5.69907571 L26.003376,5.69907571 C25.950696,4.63197155 25.523136,4.17604446 24.609216,4.16190905 C23.650896,4.14717468 23.165736,4.62202884 23.070936,5.69907571 M30.688776,8.49597157 L23.197656,8.49597157 C23.450256,9.37608095 24.370896,9.95874757 25.522176,9.97264345 C26.941176,9.98977363 28.360656,9.97719551 29.779896,9.97743507 C29.994096,9.97755488 30.208416,9.97743507 30.448536,9.97743507 L30.448536,12.6393257 C30.310656,12.6532216 30.196536,12.6744247 30.082416,12.6745444 C28.083456,12.6767007 26.084376,12.6917944 24.085656,12.6721486 C21.593856,12.6478309 19.133976,10.9572111 18.394176,8.79365382 C17.206416,5.32041426 19.490256,1.78200801 23.218656,1.30104446 C24.694176,1.11057571 26.133336,1.20353405 27.502056,1.81674759 C29.537736,2.72872155 30.595536,4.31835696 30.685056,6.54097157 C30.709776,7.15658095 30.688776,7.7739872 30.688776,8.49597157" id="Fill-12"></path>
                <path d="M82.5772319,1.8111653 L82.5772319,4.62519134 C81.4672319,4.62519134 80.3944319,4.62471218 79.3213919,4.62531113 C78.7218719,4.62567051 78.1222319,4.62602988 77.5225919,4.62950384 C77.1312719,4.63177988 76.8311519,4.80320176 76.8317519,5.21145176 C76.8324719,5.62964446 77.1511919,5.76812363 77.5349519,5.77758718 C78.5731919,5.80334238 79.6155119,5.78309759 80.6483519,5.87222259 C82.0494719,5.99321218 83.2091519,6.58797782 83.7334319,7.97396738 C84.2731919,9.40080595 83.9619119,10.7231861 82.9841519,11.8804934 C82.5667919,12.3742747 82.0097519,12.6641705 81.3597119,12.6666861 C78.4617119,12.6780663 75.5637119,12.6683632 72.6655919,12.6644101 C72.6295919,12.6644101 72.5935919,12.6396132 72.5182319,12.6117018 L72.5182319,9.93807157 L73.6973519,9.93807157 C75.1164719,9.93807157 76.5355919,9.93986845 77.9547119,9.93579551 C78.1530719,9.93519657 78.4115519,9.97772257 78.5370719,9.8738632 C78.7890719,9.66506632 79.1014319,9.38954551 79.1459519,9.10384238 C79.2090719,8.6985872 78.8490719,8.47829032 78.4390319,8.47158195 C77.4799919,8.4556497 76.5204719,8.4412747 75.5615519,8.4536132 C74.1777119,8.47158195 73.0125119,8.09807157 72.4705919,6.69111845 C71.8937519,5.19288405 72.0537119,3.76400905 73.1833919,2.58130593 C73.5412319,2.20671738 74.1343919,1.8586028 74.6292719,1.84506634 C77.2630319,1.77307155 79.8997919,1.8111653 82.5772319,1.8111653" id="Fill-14"></path>
                <polygon id="Fill-16" points="31.191624 1.80396582 42.494184 1.80396582 42.494184 4.60385645 39.201144 4.60385645 39.201144 12.6332523 34.529424 12.6332523 34.529424 4.64290853 31.191624 4.64290853"></polygon>
                <polygon id="Fill-18" points="91.5678481 12.6537127 86.9074081 12.6537127 86.9074081 4.65019186 83.5855681 4.65019186 83.5855681 1.83161374 94.8822481 1.83161374 94.8822481 4.6238377 91.5678481 4.6238377"></polygon>
                <path d="M69.7792919,3.36874446 C68.0994119,3.29818718 66.7270919,3.77160384 65.9824919,5.30014551 C65.3839319,6.52920801 65.4378119,7.79229132 66.3082919,8.90719238 C67.2663719,10.1342184 68.5359719,10.5839163 70.1913719,10.3542757 C69.9096119,10.6341091 69.6682919,10.9785101 69.3396119,11.1833538 C67.0821719,12.5903069 63.8094119,11.7367913 62.488092,9.42181738 C61.436172,7.57882257 61.562052,5.47719759 62.8203719,3.87558301 C64.0323719,2.33302571 66.2932919,1.61116113 68.2171319,2.15237988 C68.8737719,2.33697884 69.4208519,2.66496843 69.7792919,3.36874446" id="Fill-20"></path>
                <path d="M70.9335962,7.11533663 C70.8989162,7.45123251 70.8247562,7.78868563 70.8373562,8.12278457 C70.8671163,8.90909707 70.3782363,9.11262313 69.7315563,9.24235751 C67.7214363,9.64569601 66.1985163,8.04923251 66.7223163,6.07302936 C67.1781963,4.35294082 69.1211163,4.08065436 70.3897563,4.61540436 C70.5176763,4.66931061 70.6232763,4.8864929 70.6524362,5.04389915 C70.7789163,5.72635228 70.8729962,6.41491476 70.9789562,7.10132101 L70.9335962,7.11533663 Z" id="Fill-22"></path>
            </g>
        </g>
    </g>
</svg>