<svg xmlns="http://www.w3.org/2000/svg" viewBox="0 0 114.5 57.975">
  <defs>
    <style>
      .cls-1 {
        fill: #ffc10e;
      }

      .cls-2 {
        fill: #fff;
      }

      .cls-3 {
        fill: #25408d;
      }
    </style>
  </defs>
  <g id="Datový_zdroj_9" data-name="Datový zdroj 9" transform="translate(0.001)">
    <g id="Vrstva_1" data-name="Vrstva 1" transform="translate(-0.001)">
      <path id="Path_1" data-name="Path 1" class="cls-1" d="M0,7.654C-.038,2.131,2.872-.026,7.079.019L108.019,0a6.5,6.5,0,0,1,6.48,6.312V51.93c0,3.5-2.12,6.044-5.638,6.044H7.079c-3.92,0-6.931-1.241-6.946-6.044L0,7.654" transform="translate(0.001)"/>
      <path id="Path_2" data-name="Path 2" class="cls-2" d="M12.482,7.708H113.314a3.941,3.941,0,0,1,3.507,3.275V36.248L8.51,36.286V12.351c0-.943.116-2.81,1.468-3.827a3.965,3.965,0,0,1,2.5-.816" transform="translate(-5.339 -4.835)"/>
      <path id="Path_3" data-name="Path 3" class="cls-1" d="M34.883,42.4a13.188,13.188,0,0,1-7.538-2.657h-.276V41.33H23.2V35.6h3.208c2.2,3.264,5.474,4.408,10.091,3.637a6.085,6.085,0,0,0,1.822-.589l.481-.373a1.684,1.684,0,0,0,.477-1.632,2.154,2.154,0,0,0-1.625-1.491c-4.144-.779-8.5-.16-12.6-1.863a5.076,5.076,0,0,1-2.4-4.1,5.634,5.634,0,0,1,.373-2.064c1.375-2.236,4.032-3.16,6.875-3.6,3.436-.619,7.259.373,10.56,1.74v-.894c4.718-.071,8.817-.022,13.076-.022.786.693,1.491,1.651,2.258,2.389.645-.615,1.539-1.6,2.325-2.389H77.494v2.381H74.785c-1.241.071-1.863.313-.373,2.459,1.74,2.5,4.792,6.912,5.318,7.654.824-1.118,3.212-5.668,4.885-8.507.548-.939.715-1.386-.3-1.625-.708,0-1.178.019-2.266.019V24.357h8.258c2.079,0,9.666-.026,13.161,0v2.381c-3.868.093-3.51.35-3.51,5.131,2.735-1.308,6.048-2.847,8.2-4.054.708-.373,1.006-.708.82-1.077h-2.981V24.357h13.415v2.381h-2.359c-2.456,1.174-4.762,2.135-7.14,3.443,2.564,2.452,5.105,5.016,7.695,7.453.652.723,1.789.723,2.791.723V41h-14.38V38.372c.66,0,2.389.112,2.363-.637.462-.883-3.417-3.629-4.882-4.762-.827.432-1.565.887-2.5,1.416-.16.16-.8.447-1.025.674,0,2.061,0,3.309.723,3.309s1.863-.034,2.761,0V41.01c-2.079.045-10.5.026-12.427.026h-.85V38.372h2.664c1.025,0,.842-1.52.868-6.678,0-1.248-.041-2.456-.026-3.391,0-1.707-.976-1.565-2.158-1.565-1.055,0-1.863,0-2.236.589-1.39,2.418-2.277,4.073-3.726,6.547-1.4,2.567-2.713,4.773-4.017,7.181-2.2,0-4.4-.041-6.707-.041-2.981-5.008-5.012-8.571-8.4-13.59-1.215-.924-4.255-.626-6.8-.686-.548.6-1.215,1.077-1.74,1.763l.093.16a25.957,25.957,0,0,1,4.1.779,5.247,5.247,0,0,1,2.467,1.416c.723.652,1.118,2.281.2,3a4.812,4.812,0,0,1-5.049.354c-.79-.488-.917-1.151-.347-2.292.045-.529-.332-.879-.984-1.118a6.663,6.663,0,0,0-3.451-.235,4.844,4.844,0,0,0-2.553,2.452,6.61,6.61,0,0,0,.082,3.816,3.745,3.745,0,0,0,2.467,2.56,5.546,5.546,0,0,0,5.47-.6,3.033,3.033,0,0,0,1.289-1.956H65.29a6.871,6.871,0,0,1-2.761,3.894c-2.769,2.061-8.2,2.038-11.682,1-1.9-.663-3.756-1.811-4.419-3.987a6.286,6.286,0,0,1,.227-5.243c1.192-2.385,4.192-3.529,7.035-3.756l.045-.164c-.373-.592-1.148-1.211-1.58-1.807-3.13-.022-5.392,0-8.116,0-.034.585.026,1.118,0,2.3H40.607l-.663-.6c-2.236-1.96-7.542-3.592-10.307-2.236l-.481.373a1.289,1.289,0,0,0-.071,1.863c2.679,2.4,6.476,1.081,10.631,2.042A7.972,7.972,0,0,1,44.352,32.9c.712.939.7,3.208,0,4.583,0,.272-.231.272-.324.663-1.647,2.541-4.647,3.961-8.015,4.282H34.883" transform="translate(-14.209 -14.646)"/>
      <rect id="Rectangle_1" data-name="Rectangle 1" class="cls-2" width="108.314" height="10.572" transform="translate(3.175 39.238)"/>
      <rect id="Rectangle_2" data-name="Rectangle 2" class="cls-3" width="108.314" height="1.677" transform="translate(3.175 42.29)"/>
      <rect id="Rectangle_3" data-name="Rectangle 3" class="cls-3" width="108.314" height="1.677" transform="translate(3.175 45.853)"/>
      <rect id="Rectangle_4" data-name="Rectangle 4" class="cls-3" width="108.318" height="5.351" transform="translate(3.171 34.722)"/>
      <path id="Path_4" data-name="Path 4" class="cls-3" d="M8.491,132.93H116.813v2.322c0,2.236-.954,3.234-2.664,3.234H11.357a2.693,2.693,0,0,1-2.877-3.03V132.93" transform="translate(-5.32 -83.396)"/>
    </g>
  </g>
</svg>
