<svg xmlns="http://www.w3.org/2000/svg" width="309.751" height="56.707" viewBox="0 0 232.313 42.53"><g data-name="Layer 1"><clipPath id="a"><path transform="matrix(1 0 0 -1 0 42.53)" d="M0 42.53h232.313V0H0z"/></clipPath><g clip-path="url(#a)"><path d="M63.196 26.163c0 .961.612 1.427 1.835 1.427h14.971v4.398H64.886c-3.817 0-7.196-1.106-7.196-5.825v-8.33c0-4.718 3.38-5.825 7.195-5.825h14.826v4.398h-14.68c-1.224 0-1.836.466-1.836 1.427v2.243h16.283v4.048H63.197zm23.681 4.341c-2.01-1.543-2.709-3.932-2.709-8.506v-9.991h5.505v9.99c0 2.71.583 4.196 1.311 4.779.845.699 1.835.96 5.273.96 3.436 0 4.427-.261 5.272-.96.728-.583 1.31-2.04 1.31-4.778v-9.991h5.506v9.99c0 4.575-.699 6.964-2.709 8.507-2.01 1.544-4.107 1.952-9.379 1.952-5.273 0-7.37-.408-9.38-1.952m31.604-13.807v5.359c1.224.146 3.35.379 6.059.379 3.204 0 4.281-.262 4.981-.611.729-.438.846-.962.846-2.447 0-1.224-.263-1.981-1.166-2.447-.815-.408-1.864-.612-4.602-.612-2.36-.058-4.138.175-6.118.379m11.914 15.292c-.234-3.03-1.864-5.01-3.67-5.01h-2.214c-1.98 0-4.05-.03-6.058-.262v5.272h-5.507V12.473c3.613-.437 7.255-.903 11.566-.903 9.524.117 11.476 1.952 11.476 7.778 0 4.049-1.166 4.719-3.088 5.942 2.418 1.457 3.408 3.263 3.408 6.699zm16.632-5.039c.845.699 2.563.816 6.03.816 3.466 0 5.185-.117 6.03-.816.728-.583.96-2.243.96-4.952s-.232-4.34-.96-4.922c-.845-.699-2.564-.816-6.03-.816-3.467 0-5.185.117-6.03.816-.728.582-.96 2.213-.96 4.922 0 2.709.232 4.369.96 4.952m16.137 3.554c-2.009 1.544-4.835 1.951-10.136 1.951-5.273 0-8.098-.407-10.137-1.951-2.01-1.544-2.709-3.933-2.709-8.506 0-4.602.7-6.933 2.71-8.476 2.01-1.544 4.834-1.952 10.136-1.952 5.272 0 8.097.408 10.136 1.952 2.01 1.543 2.71 3.874 2.71 8.476 0 4.573-.7 6.962-2.71 8.506m11.216-1.806l-7.196-16.691h5.855l6.262 15.176c.176.438.554.67 1.05.67.523 0 .873-.232 1.077-.67l6.263-15.176h5.884l-7.195 16.69c-.932 2.157-2.797 3.759-6.03 3.759-3.175 0-5.039-1.573-5.97-3.758m22.224-16.691h5.505v19.982h-5.505zm26.245 11.739l-2.942-6.728c-.174-.41-.466-.816-1.136-.816-.67 0-.961.407-1.136.816l-2.942 6.728c1.456.233 2.564.262 4.078.262 1.515 0 2.622-.03 4.078-.262m-10.195 4.602l-1.66 3.67h-5.74l7.4-16.545c1.136-2.592 2.62-3.903 6.088-3.903 3.495 0 4.952 1.282 6.087 3.903l7.4 16.546h-5.71l-1.66-3.671a45.663 45.663 0 01-6.117.408c-2.36-.03-4.282-.204-6.088-.408" fill="#004289"/><path d="M45.718 8.599c-.116.786-1.282 1.573-3.175 2.156l-16.66 5.272s-1.254.379-2.594.407v6.293c1.37 0 2.593-.379 2.593-.379l16.661-5.272c3.437-1.049 3.175-1.544 3.175-4.602z" fill="#e62733"/><path d="M23.231 16.464c1.37 0 2.622-.38 2.622-.38l16.691-5.3c3.612-1.165 4.514-2.913.786-4.194L25.97.647S24.745.21 23.26.21a8.97 8.97 0 00-2.709.437L3.25 6.56c-3.7 1.282-2.71 3.03.38 4.079l17.04 5.418s1.193.407 2.562.407" fill="#004289"/><path d="M45.69 22.202V19.58l-19.984 6.292s-1.223.349-2.475.349v6.293c1.37 0 2.592-.408 2.592-.408l16.662-5.302c3.495-1.048 3.204-1.543 3.204-4.602m.001 9.788v-2.652l-17.653 5.564-2.185.7s-.029 0-.058.028l-.058.03s-1.223.348-2.476.348v6.293c1.37 0 2.592-.408 2.592-.408l16.662-5.272c3.466-1.078 3.175-1.573 3.175-4.632" fill="#e62733"/><path d="M25.853 22.348s-1.253.379-2.592.379c-.757 0-1.69-.175-2.418-.408l-14.797-5.01v3.466l14.797 5.039s1.107.409 2.388.409c1.282 0 2.506-.35 2.506-.35l19.982-6.292-5.302-1.835zm0 9.758s-1.253.379-2.592.407c-.757 0-1.69-.174-2.418-.407l-14.797-5.01v3.466L20.843 35.6s1.107.379 2.388.379c1.282 0 2.506-.35 2.506-.35l19.982-6.291-5.302-1.835z" fill="#004289"/></g></g></svg>